<svg viewBox="0 0 800 600" xmlns="http://www.w3.org/2000/svg">
  <!-- Background with gradient -->
  <defs>
    <linearGradient id="bg-gradient" x1="0%" y1="0%" x2="100%" y2="100%">
      <stop offset="0%" style="stop-color:#B71C1C;stop-opacity:1" />
      <stop offset="100%" style="stop-color:#7F0000;stop-opacity:1" />
    </linearGradient>
    <pattern id="grid-pattern" x="0" y="0" width="50" height="50" patternUnits="userSpaceOnUse">
      <path d="M 50 0 L 0 0 0 50" fill="none" stroke="#ffffff10" stroke-width="1"/>
    </pattern>
  </defs>

  <!-- Main background -->
  <rect width="800" height="600" fill="url(#bg-gradient)" />
  <rect width="800" height="600" fill="url(#grid-pattern)" />

  <!-- Application Window -->
  <g transform="translate(50, 30)">
    <!-- Window frame -->
    <rect x="0" y="0" width="700" height="540" rx="10" fill="#263238" />
    
    <!-- Title bar -->
    <rect x="0" y="0" width="700" height="40" rx="10" fill="#37474F" />
    <text x="20" y="25" fill="white" font-size="16" font-weight="bold">Agniparikshya - Emergency Route Optimizer</text>

    <!-- Main content area -->
    <g transform="translate(10, 50)">
      <!-- Left panel - Controls -->
      <rect x="0" y="0" width="200" height="480" fill="#455A64" rx="5" />
      
      <!-- Emergency Controls -->
      <rect x="10" y="10" width="180" height="100" fill="#B71C1C" rx="5" />
      <text x="20" y="35" fill="white" font-size="14" font-weight="bold">EMERGENCY DISPATCH</text>
      <circle cx="40" cy="65" r="15" fill="#FF8F00" />
      <text x="70" y="70" fill="white" font-size="12">Active Response: 3</text>

      <!-- Vehicle List -->
      <rect x="10" y="120" width="180" height="150" fill="#263238" rx="5" />
      <text x="20" y="140" fill="white" font-size="12">Available Fire Engines</text>
      <g transform="translate(20, 155)">
        <rect width="160" height="25" fill="#37474F" rx="3" />
        <circle cx="10" cy="12" r="5" fill="#4CAF50" />
        <text x="25" y="17" fill="white" font-size="11">Engine 01 - Ready</text>
      </g>
      <g transform="translate(20, 185)">
        <rect width="160" height="25" fill="#37474F" rx="3" />
        <circle cx="10" cy="12" r="5" fill="#4CAF50" />
        <text x="25" y="17" fill="white" font-size="11">Engine 02 - Ready</text>
      </g>
      <g transform="translate(20, 215)">
        <rect width="160" height="25" fill="#37474F" rx="3" />
        <circle cx="10" cy="12" r="5" fill="#FF5252" />
        <text x="25" y="17" fill="white" font-size="11">Engine 03 - Deployed</text>
      </g>

      <!-- Algorithm Stats -->
      <rect x="10" y="280" width="180" height="190" fill="#263238" rx="5" />
      <text x="20" y="300" fill="white" font-size="12">Route Statistics</text>
      <g transform="translate(20, 315)">
        <text x="0" y="0" fill="#90A4AE" font-size="11">Dijkstra's Algorithm</text>
        <text x="0" y="20" fill="#90A4AE" font-size="11">Nodes Processed: 1,247</text>
        <text x="0" y="40" fill="#90A4AE" font-size="11">Route Options: 8</text>
        <text x="0" y="60" fill="#90A4AE" font-size="11">Avg. Response: 4.2 min</text>
      </g>

      <!-- Main Map Area -->
      <g transform="translate(210, 0)">
        <rect x="0" y="0" width="470" height="480" fill="#37474F" rx="5" />
        
        <!-- Map Content -->
        <rect x="10" y="10" width="450" height="460" fill="#263238" rx="5" />
        
        <!-- Roads -->
        <path d="M 50 50 L 420 50 M 50 150 L 420 150 M 50 250 L 420 250 M 50 350 L 420 350
                M 150 30 L 150 450 M 250 30 L 250 450 M 350 30 L 350 450" 
              stroke="#455A64" stroke-width="8"/>
        
        <!-- Optimal Route -->
        <path d="M 150 350 L 250 350 L 250 150 L 350 150" 
              stroke="#FF8F00" stroke-width="4" stroke-dasharray="10,5"/>
        
        <!-- Emergency Location -->
        <circle cx="350" cy="150" r="10" fill="#FF5252" />
        <circle cx="350" cy="150" r="20" fill="#FF5252" opacity="0.3" />
        
        <!-- Fire Station -->
        <rect x="140" y="340" width="20" height="20" fill="#4CAF50" />
        <text x="130" y="375" fill="#90A4AE" font-size="10">Station</text>
        
        <!-- Legend -->
        <g transform="translate(20, 420)">
          <rect width="120" height="30" fill="#263238" rx="3" />
          <circle cx="15" cy="15" r="5" fill="#FF5252" />
          <text x="30" y="19" fill="white" font-size="10">Emergency</text>
          <line x1="70" y1="15" x2="100" y2="15" stroke="#FF8F00" stroke-width="2" stroke-dasharray="4,2"/>
          <text x="110" y="19" fill="white" font-size="10">Route</text>
        </g>
      </g>
    </g>
  </g>
</svg>
